<?xml version="1.0" encoding="UTF-8" standalone="no"?>
<!DOCTYPE svg PUBLIC "-//W3C//DTD SVG 1.1//EN" "http://www.w3.org/Graphics/SVG/1.1/DTD/svg11.dtd">
<svg width="271px" height="102px" version="1.1" xmlns="http://www.w3.org/2000/svg" xmlns:xlink="http://www.w3.org/1999/xlink" xml:space="preserve" xmlns:serif="http://www.serif.com/" style="fill-rule:evenodd;clip-rule:evenodd;stroke-linejoin:round;stroke-miterlimit:2;">
    <g transform="matrix(1,0,0,1,-13.5677,-99.504)">
        <g transform="matrix(1.46588e-15,-23.9396,23.9396,1.46588e-15,-1627.48,1490.29)">
            <path d="M58.096,77.465C58.096,78.129 57.872,78.691 57.424,79.151C56.976,79.611 56.452,79.841 55.852,79.841C55.308,79.841 54.858,79.667 54.502,79.319C54.146,78.971 53.968,78.553 53.968,78.065C53.968,77.617 54.106,77.259 54.382,76.991C54.658,76.723 55.032,76.589 55.504,76.589C55.832,76.589 56.11,76.699 56.338,76.919C56.566,77.139 56.68,77.389 56.68,77.669C56.68,77.909 56.57,78.131 56.35,78.335C56.13,78.539 55.888,78.641 55.624,78.641C55.424,78.641 55.258,78.571 55.126,78.431C54.994,78.291 54.928,78.113 54.928,77.897C54.928,77.801 54.956,77.695 55.012,77.579C55.068,77.463 55.096,77.397 55.096,77.381C55.096,77.141 55.012,77.021 54.844,77.021C54.708,77.021 54.582,77.127 54.466,77.339C54.35,77.551 54.292,77.809 54.292,78.113C54.292,78.513 54.442,78.855 54.742,79.139C55.042,79.423 55.42,79.565 55.876,79.565C56.356,79.565 56.776,79.369 57.136,78.977C57.496,78.585 57.676,78.121 57.676,77.585C57.676,76.889 57.212,76.117 56.284,75.269C55.948,74.965 55.612,74.661 55.276,74.357C55.02,74.117 54.892,73.933 54.892,73.805C54.892,73.597 54.992,73.493 55.192,73.493C55.224,73.493 55.274,73.509 55.342,73.541C55.41,73.573 55.464,73.589 55.504,73.589C55.592,73.589 55.636,73.525 55.636,73.397C55.636,73.277 55.532,73.137 55.324,72.977C55.068,72.793 54.816,72.609 54.568,72.425C54.168,72.097 53.968,71.741 53.968,71.357C53.968,71.253 54.044,71.201 54.196,71.201C54.212,71.201 54.238,71.205 54.274,71.213C54.31,71.221 54.344,71.225 54.376,71.225C54.536,71.225 54.616,71.173 54.616,71.069C54.616,71.053 54.552,70.897 54.424,70.601C54.248,70.217 54.092,69.829 53.956,69.437C53.876,69.213 53.836,69.049 53.836,68.945C53.836,68.681 53.916,68.549 54.076,68.549C54.18,68.549 54.276,68.737 54.364,69.113C54.508,69.729 54.682,70.267 54.886,70.727C55.09,71.187 55.244,71.517 55.348,71.717C55.644,72.293 56.008,72.893 56.44,73.517C57.544,75.109 58.096,76.425 58.096,77.465Z" style="fill-rule:nonzero;"/>
        </g>
    </g>
</svg>
